<svg width="16" height="16" xmlns="http://www.w3.org/2000/svg"><rect x="2" y="12" width="2" height="2" rx=".2" fill="#fff"/><rect x="2" y="8" width="2" height="2" rx=".2" fill="#fff"/><rect x="2" y="4" width="2" height="2" rx=".2" fill="#fff"/><rect x="6" y="8" width="2" height="2" rx=".2" fill="#fff"/><rect x="6" y="12" width="2" height="2" rx=".2" fill="#fff"/><rect x="10" y="12" width="2" height="2" rx=".2" fill="#fff"/><rect transform="rotate(-45)" x="3.111" y="10.182" width="1.414" height="5.728" fill="#fff"/><path transform="rotate(-225) translate(-7.5-18.5)" d="m1.995 9.308h4.525v.353C6.52 11.429 5.459 8.954 4.894 10.227h-4.314z" fill="#fff" stroke-linejoin="bevel"/><path transform="rotate(-225) translate(-7.5-18.5)" d="m2.065 9.237h4.455v-.424C6.662 6.903 5.389 9.732 4.752 8.388h-2.404z" fill="#fff" stroke-linejoin="bevel"/></svg>