<svg width="16" height="16" xmlns="http://www.w3.org/2000/svg"><path transform="translate(6 6.5) scale(1.2)" d="M-3.7-3.2Q-1.5-2.5-1.8 0L-.1 0Q0-3.3-3-4.3L-2.1-5.4-4.7-4.7-4.5-2" fill="#cd5c5c"/><path transform="translate(10 6.5) scale(-1.2 1.2)" d="M-3.7-3.2Q-1.5-2.5-1.8 0L-.1 0Q0-3.3-3-4.3L-2.1-5.4-4.7-4.7-4.5-2" fill="#cd5c5c"/><path transform="translate(7.7 6) scale(1.2)" d="M.167-2.833 2.167-2.833Q.7-3 .6.5L-.1.5Q-.167-3-1.667-2.833" fill="#cd5c5c"/><path transform="translate(7.7 1.5) scale(1.2)" d="M3 .8-2.5.8.2-1" fill="#cd5c5c"/><rect transform="translate(2 7) scale(1)" x="-1.6" width="1.6" height="8.6" ry=".3" fill="#cd5c5c"/><rect transform="translate(2 7) scale(1)" x="12" width="1.6" height="8.6" ry=".3" fill="#cd5c5c"/><rect transform="translate(-7 7) scale(10 1)" x=".86" width="1.26" height="1.6" fill="#cd5c5c"/><rect transform="translate(-7 7) scale(10 1)" x=".9" y="3.8" width="1.2" height="1.2" fill="#cd5c5c"/><rect transform="translate(-7 7) scale(10 1)" x="1.1" y="1.6" width=".14" height="5.4" fill="#cd5c5c"/><rect transform="translate(-7 7) scale(10 1)" x="1.44" y="1.6" width=".14" height="5.4" fill="#cd5c5c"/><rect transform="translate(-7 7) scale(10 1)" x="1.78" y="1.6" width=".14" height="5.4" fill="#cd5c5c"/><rect transform="translate(-7 7) scale(10 1)" x=".86" y="7" width="1.26" height="1.6" fill="#cd5c5c"/></svg>
