<svg width="16" height="16" xmlns="http://www.w3.org/2000/svg"><rect x="1.8" y="11.8" width="2.4" height="2.4" rx=".2" fill="#fff"/><rect x="1.8" y="7.6" width="2.4" height="2.4" rx=".2" fill="#fff"/><rect x="1.8" y="3.6" width="2.4" height="2.4" rx=".2" fill="#fff"/><rect x="5.8" y="7.6" width="2.4" height="2.4" rx=".2" fill="#fff"/><rect x="5.8" y="11.8" width="2.4" height="2.4" rx=".2" fill="#fff"/><rect x="9.8" y="11.8" width="2.4" height="2.4" rx=".2" fill="#fff"/><rect transform="rotate(-45) scale(1.2)" x="2.357" y="8.721" width="1.414" height="5.728" ry=".4" fill="#fff"/><rect transform="rotate(-45) scale(1.2)" x="2.357" y="8.721" width="1.414" height="1.061" fill="#fff"/><path transform="rotate(-225) translate(-8.2-20.4) scale(1.2)" d="m1.995 9.308h4.525v.353C6.52 11.429 5.459 8.954 4.894 10.227h-4.314z" fill="#fff" stroke-linejoin="bevel"/><path transform="rotate(-225) translate(-8.2-20.4) scale(1.2)" d="m2.065 9.237h4.455v-.424C6.662 6.903 5.389 9.732 4.752 8.388h-2.404z" fill="#fff" stroke-linejoin="bevel"/></svg>
