<svg width="16" height="16" xmlns="http://www.w3.org/2000/svg"><path transform="translate(.5)" d="M12.1 12 13 13.8Q11 12.9 10.9 12L10.1 5.7Q8.8 3.6 3.3 3C2.2 2.5 2 2 1.7 1.2L8.2 2.4Q11 2.5 11.5 5.5" fill="#fff"/><path transform="translate(2-2.5)" d="M8.5 9.5Q7.6 7.6 4.7 6.8L1.2 5.6Q3 8.6 6.6 9.4" fill="#fff"/><path transform="translate(2)" d="M8.5 9.5Q8.2 8 5.5 7.2L1.3 5.3Q2.9 8.8 6.6 9.4" fill="#fff"/><path transform="translate(2 2.5)" d="M8.5 9.5Q8.5 7.9 5.9 7.2L1.3 5.3Q3.4 9 6.6 9.4" fill="#fff"/></svg>
